<svg xmlns="http://www.w3.org/2000/svg" version="1.0" fill="#fff" viewBox="0 0 1024 1024"><path d="M0 512v512H331.7l.7-5.7c5-46.6 4.9-79.5-.4-124.3-2.6-21.3-3-24-4-24-.8 0-12.1 24.7-22.6 49.5-8.1 19.3-15.4 34.1-20.5 41.6-20.3 30-59.3 30-82.3 0-13.2-17.2-18.1-37.7-14.5-61.4 4.5-30.3 23-79.2 49-130.2 27.2-53.4 48.8-81.8 75.4-99.1 18.3-11.9 34.7-17.9 59.5-21.8 7.9-1.3 37.1-3.6 45.9-3.6 2.1 0 1.7-.7-3.6-6.8-12.2-13.7-19.3-25.7-19.3-32.2 0-1.5-.7-2-2.4-2-6.6 0-35 13-47.8 21.9-4 2.8-10.8 8.2-15.1 12.1-8.1 7.3-9.4 8-10.3 5.5-.8-2 1.1-4.4 9.6-12.1 13.8-12.4 35.2-24.5 55.4-31.3 4.8-1.6 9-3.2 9.4-3.6s1-4.5 1.3-9.1 1-8.9 1.7-9.6c1.9-1.9 28.1-1.4 37.7.6 4.4 1 8.4 1.8 9 1.9.5.1 1-.5 1-1.3 0-2.9-10-5.3-24-5.8-26.3-.9-61 6.4-89.9 18.9-4.9 2.2-9.5 3.9-10.3 3.9-2.2 0-1.5-3.7 1-5.3 6.6-4.3 29.1-12.6 45.5-16.7 6.5-1.6 25.7-4.9 29.4-5 .7 0 1.2-2.3 2.3-9.8l.7-4.2h4.9c6.5 0 23.5 3.4 33.6 6.7 4.6 1.4 8.6 2.3 9 1.9 3.1-3-11.6-8.5-29.6-11-12.9-1.8-38.7-2.1-52.9-.5-11.6 1.2-29.3 5-39.3 8.4-8.9 3.1-11.9 3.2-11.9.6 0-1.5 1.7-2.6 6.8-4.5 18.3-7 38-10.4 64-11.3l18.2-.6 1.1-4.1c2.5-9.4 7.4-22.6 13.6-36.9 19.6-45.4 20.8-49.5 20.1-68.6-1-24.8-3.9-30.3-60-113.1-47-69.5-69.5-115.6-86.1-176.5-6-21.9-9.3-41.7-8.2-50.1.7-5.7 3.3-10.5 6.9-12.9 3.2-2.1 11.1-2.1 16-.1 8.6 3.6 25.1 17.5 35.5 30 3.5 4.2 6.7 7.6 7.1 7.6s1-5.3 1.2-11.8c.5-13 2.2-18.4 7.4-23.5 4.7-4.7 8.3-6.1 15.5-6.2 5.5 0 7.6.5 14 3.7 33.6 16.8 71.7 79.6 85.3 140.9 7.9 35.5 11 68.5 13.6 143.9.6 17.3 1.3 32.7 1.6 34.3.3 1.5 1.4 3.2 2.4 3.7 1.1.6 11 1 23.3 1 19.1 0 21.6-.2 22.9-1.8 1.6-1.7 2.4-11.6 4.4-52.2 4.1-84 10.5-125.8 26.1-169 11.5-32.1 30.4-62.9 50.4-82.8 12.9-12.7 21-18 31.9-20.8 9-2.3 15.7-.7 22.1 5.3 6.5 6 9 12.7 9.7 25.6.2 5.4.8 9.6 1.3 9.5.4-.2 4.3-4.6 8.7-9.9 8.7-10.4 21.6-21.5 30.2-25.7 3.5-1.7 7.6-2.8 11.5-3 5.5-.4 6.4-.1 9.4 2.4 1.9 1.5 4 4.3 4.7 6.1 3.9 9.2-.4 34.3-11.8 69.3-19.1 59-44.9 107-98.1 183.3-30.9 44.2-41.9 63.6-44.9 79.5-.6 3.2-.8 11-.5 17.7.6 14.2 2.1 19.6 14.7 49.5 7.8 18.7 17.2 45.2 18.6 52.5l.6 3.5h12c21.2 0 42 3.2 62.4 9.5 6.1 1.9 12.2 4.3 13.4 5.3 1.9 1.6 2 1.9.7 3.1-1.3 1-3.3.7-11.4-1.8-22.5-6.9-43-10.1-65.5-10.1-26.4 0-56.8 6.4-56.8 11.9 0 1.6 1 1.5 11.8-1.6 13.8-4 33.6-7.3 35.2-5.7.5.5 1.3 3.8 1.6 7.2.4 3.4.9 6.2 1.2 6.2.2 0 5.2.7 11.1 1.5 19.3 2.9 39.6 9 56.7 17.1 9.4 4.5 12.1 6.5 10.9 8.4-1 1.6-2.8 1.2-10.2-2.1-27.3-12.4-63.7-21.2-88.3-21.3-16.5-.1-32.7 4-29.4 7.4.8.8 2.7.6 7-.5 9.1-2.4 24.8-3.8 34-3l8.3.7.5 5.1c.4 2.9.7 7.3.9 10l.2 4.7 11 3.9c16.5 5.7 34 15 45 23.9 6.8 5.5 15.5 14.6 15.5 16.4 0 3.1-3 2-8.7-3.2-12.2-11.2-25.2-19.8-38.7-25.7-8.5-3.8-21.2-8.3-23.1-8.3-.7 0-1.7 2.5-2.4 5.5-2.1 9.5-7.6 19-16.1 27.7-4.2 4.4-7.2 8.1-6.6 8.3s8.1.6 16.6.8c34.7 1.2 67.2 10.9 92.5 27.8 10.4 7 25.4 21.8 34.6 34.4 35.3 47.8 78.6 140.8 86.4 185.4 4 22.8 0 44.4-11.6 63.7-20.5 33.8-63.3 34.7-85.6 1.9-4.8-7.2-10.5-18.4-20.3-40-10.6-23.5-22.9-48.9-23.5-48.4-.8.9-4.5 34.1-6.6 59.7-2.3 29.1-2.1 46 1.2 74.7 1 9.3 1.9 17.3 1.9 17.7 0 .5 74.7.8 166 .8h166V0H0v512z"/><path d="M453.6 506.1c-3.3 3.9-3.9 6.5-3.4 13.7 1 13.9 11.5 21.5 16.4 11.9 2.2-4.2 3-15.4 1.4-20.3-2.8-8.7-9.5-11.2-14.4-5.3zM485 571.5c-.6.8-.9 2.3-.5 3.4 1 3.3 9.5 10.1 17.5 14l7.5 3.7.5 11.3c.3 7.4.1 12.4-.6 14.1-1.6 3.6-7.9 6.1-17.6 6.7-6.9.5-7.8.8-7.8 2.6 0 1.9.5 1.9 8.9 1.5 6.6-.4 10.3-1.2 14.5-3.1l5.6-2.6 5.8 2.6c4.8 2.3 7.1 2.7 15.2 2.7 7.8.1 9.5-.2 9.5-1.4s-1.8-1.6-8-2.1c-10.3-.8-14.8-2.3-18-6.1-2.5-2.9-2.6-3.4-2.3-14.6.2-9 .6-11.7 1.8-12.3.8-.5 4.7-2.3 8.5-4.1 8.6-4 16.8-11.5 16.3-14.9-.5-3.7-4.2-3.7-5.7-.1-1.8 4.3-5.8 7.7-12.4 10.8-7.8 3.5-15.9 3.1-24.4-1.2-4.7-2.4-6.3-3.9-8.3-7.7-2.6-4.9-4-5.7-6-3.2zM429.4 597.4c-11 2.9-23.6 8-25.9 10.6-3.2 3.5-.7 4 5.8 1.1 7.8-3.5 14.8-5.8 25.7-8.6 5.7-1.4 8.5-2.6 8.5-3.6 0-2.2-4.2-2.1-14.1.5zM580.5 596c-1.1 1.8.4 2.8 5.2 3.5 6.8 1 19.5 5.1 28.2 9.1 7.7 3.5 10.5 3.6 7.4.1-2.6-2.9-14.4-8.1-25.3-11.1-10.1-2.8-14.5-3.2-15.5-1.6z"/></svg>